# xmcd
#
# Track frame offsets:
#	150
#	17572
#	35035
#	53915
#	68330
#	98442
#	115932
#	145985
#	187387
#	215262
#	250840
#
# Disc length: 3787 seconds
# Revision: 0
# Processed by: cddbd v1.5.2PL0 Copyright (c) Steve Scherf et al.
# Submitted via: dBpowerAMP V12.0
#
DISCID=970ec90b
DTITLE=MSM - I'm The Only One - Alguien Que Te Quiera
DYEAR=2002
DGENRE=House
TTITLE0=Alguien Que Te Quiera [ObAdam's Soul Cha Cha Spanish Radio]
TTITLE1=I’m The Only One - Alguien Que Te Quiera [ObAdam's Soul Cha Cha Spanglish Radio]
TTITLE2=I’m The Only One [Pablo Flores English Radio Edit]
TTITLE3=I’m The Only One - Alguien Que Te Quiera [Spanglish Version]
TTITLE4=Alguien Que Te Quiera [ObAdam's Soul Cha Cha Spanish Club Remix]
TTITLE5=I’m The Only One [ObAdam's Soul Cha Cha English Radio Remix]
TTITLE6=I’m The Only One [ObAdam's Soul Cha Cha English Club Remix]
TTITLE7=Alguien Que Te Quiera [Pablo Flores Spanish Club Mix]
TTITLE8=I’m The Only One [Wildfire Extended Vocal Mix]
TTITLE9=I’m The Only One [ObAdam's Haters Dub]
TTITLE10=I’m The Only One [Pablo Flores Dub]
EXTD=
EXTT0=
EXTT1=
EXTT2=
EXTT3=
EXTT4=
EXTT5=
EXTT6=
EXTT7=
EXTT8=
EXTT9=
EXTT10=
PLAYORDER=
